<svg version="1.1" id="Uploaded to svgrepo.com" xmlns="http://www.w3.org/2000/svg" xmlns:xlink="http://www.w3.org/1999/xlink" x="0px" y="0px"
	 viewBox="0 0 32 32" style="enable-background:new 0 0 32 32;" xml:space="preserve">
<style type="text/css">
	.hatch_een{fill:#265AA5;}
	.hatch_twee{fill:#FFC5BB;}
</style>
<g>
	<g>
		<path class="hatch_twee" d="M30.491,15c-0.013-0.362-0.043-0.739-0.083-1.096L29.312,15H30.491z"/>
		<polygon class="hatch_twee" points="11.635,8.677 5.312,15 6.726,15 12.152,9.574 		"/>
		<path class="hatch_twee" d="M10.162,14.15L9.312,15h0.709C10.045,14.711,10.097,14.429,10.162,14.15z"/>
		<path class="hatch_twee" d="M24.518,3.794l-2.439,2.439l-1.932,3.346l5.164-5.164C25.054,4.2,24.79,3.993,24.518,3.794z"/>
		<path class="hatch_twee" d="M14.92,21.391l-3.77,3.77L9.31,28.35c0.015,0.008,0.031,0.013,0.046,0.021l6.889-6.889
			C15.801,21.499,15.357,21.47,14.92,21.391z"/>
		<path class="hatch_twee" d="M10.17,6.141l-8.648,8.648C1.519,14.86,1.511,14.929,1.509,15h1.217l7.962-7.962L10.17,6.141z"/>
		<path class="hatch_twee" d="M2.801,9.516C2.473,10.23,2.208,10.965,2,11.726l7.224-7.224L8.711,3.615L2.801,9.516z"/>
		<path class="hatch_twee" d="M26.726,15l3.268-3.268c-0.099-0.361-0.215-0.721-0.341-1.073L25.312,15H26.726z"/>
		<path class="hatch_twee" d="M20.937,24.789l-0.518-0.896l-5.999,5.999c0.447,0.047,0.889,0.07,1.338,0.076L20.937,24.789z"/>
		<path class="hatch_twee" d="M22.401,27.325l-0.518-0.896l-3.316,3.316c0.639-0.115,1.256-0.261,1.876-0.462L22.401,27.325z"/>
		<path class="hatch_twee" d="M19.472,22.253l-0.518-0.896l-7.796,7.796c0.358,0.125,0.717,0.235,1.083,0.331L19.472,22.253z"/>
		<path class="hatch_twee" d="M21.979,15h0.746l6.141-6.141c-0.16-0.308-0.33-0.606-0.512-0.902l-6.456,6.456
			C21.934,14.606,21.963,14.802,21.979,15z"/>
		<path class="hatch_twee" d="M27.288,6.438c-0.209-0.261-0.428-0.512-0.655-0.759l-6.011,6.011c0.217,0.262,0.415,0.537,0.584,0.83
			L27.288,6.438z"/>
	</g>
	<path class="hatch_een" d="M12,15.5c0,2.206,1.794,4,4,4s4-1.794,4-4c0-2.206-1.794-4-4-4S12,13.294,12,15.5z M16,12.5
		c1.657,0,3,1.343,3,3s-1.343,3-3,3s-3-1.343-3-3S14.343,12.5,16,12.5z M10.5,16H1c-0.276,0-0.5-0.224-0.5-0.5
		c0-5.555,3.017-10.719,7.873-13.478c0.239-0.136,0.543-0.054,0.68,0.185l4.745,8.218c0.067,0.117,0.085,0.255,0.049,0.385
		s-0.123,0.239-0.241,0.304C11.998,11.994,11,13.675,11,15.5C11,15.776,10.776,16,10.5,16z M1.509,15h8.512
		c0.153-1.826,1.136-3.484,2.667-4.5L8.439,3.144C4.289,5.692,1.678,10.16,1.509,15z M31,16h-9.5c-0.276,0-0.5-0.224-0.5-0.5
		c0-1.749-0.898-3.343-2.402-4.263c-0.231-0.141-0.308-0.441-0.172-0.676l4.745-8.218c0.066-0.116,0.177-0.2,0.306-0.233
		c0.131-0.035,0.268-0.015,0.382,0.053C28.571,4.95,31.5,10.061,31.5,15.5C31.5,15.776,31.276,16,31,16z M21.979,15h8.512
		c-0.167-4.732-2.695-9.143-6.712-11.712l-4.254,7.367C20.948,11.687,21.836,13.259,21.979,15z M16,31
		c-2.661,0-5.299-0.699-7.627-2.022c-0.116-0.065-0.2-0.175-0.235-0.304c-0.035-0.128-0.018-0.266,0.05-0.381l4.745-8.218
		c0.135-0.236,0.437-0.318,0.673-0.188c1.531,0.84,3.483,0.799,4.992-0.124c0.114-0.07,0.255-0.093,0.384-0.058
		c0.131,0.033,0.242,0.118,0.31,0.234l4.745,8.218c0.138,0.237,0.058,0.541-0.178,0.68C21.466,30.252,18.749,31,16,31z M9.31,28.35
		c4.208,2.201,9.422,2.16,13.609-0.128l-4.248-7.356c-1.583,0.794-3.497,0.833-5.107,0.116L9.31,28.35z"/>
</g>
</svg>